<svg xmlns:xlink="http://www.w3.org/1999/xlink" xmlns="http://www.w3.org/2000/svg" width="22" height="22" viewBox="0 0 80 80" fill="none"><path d="M11.667 56.004h3.19v.909h-1.071v2.773h-1.049v-2.773h-1.07v-.91zm5.38 3.074h-1.19l-.165.608h-1.071l1.275-3.682h1.144l1.275 3.682h-1.098l-.17-.608zm-.216-.796l-.375-1.323-.372 1.323h.747zm1.785 1.404v-3.682h1.748c.324 0 .573.03.744.09a.8.8 0 01.415.335c.105.163.157.362.157.597 0 .204-.04.381-.12.528a.992.992 0 01-.33.361c-.09.06-.213.107-.368.146.124.045.216.09.273.136.038.03.095.096.167.193.074.1.122.175.147.23l.509 1.067h-1.186l-.56-1.125c-.072-.146-.134-.24-.19-.284a.417.417 0 00-.258-.085h-.093v1.494h-1.053l-.002-.001zm1.053-2.19h.442c.048 0 .14-.018.278-.051a.272.272 0 00.17-.116.356.356 0 00.066-.214c0-.119-.035-.21-.104-.273-.07-.064-.2-.096-.392-.096h-.461v.75zm3.987-1.492h1.05v2c0 .42-.034.74-.102.96-.07.219-.206.404-.415.556-.207.152-.473.228-.797.228-.343 0-.608-.05-.796-.15-.19-.1-.334-.248-.438-.44a1.772 1.772 0 01-.18-.718l1.002-.149c0 .163.014.284.04.362a.393.393 0 00.124.19c.04.033.097.049.172.049a.279.279 0 00.258-.141c.055-.095.083-.255.083-.478v-2.268l-.001-.002zm1.7 0h2.811v.786h-1.76v.585h1.633v.751h-1.633v.726h1.811v.834h-2.862v-3.682zm3.14 0h3.19v.909h-1.07v2.773h-1.05v-2.773h-1.07v-.91zm5.383 3.074h-1.19l-.166.608h-1.071l1.275-3.682h1.144l1.276 3.682h-1.1l-.169-.608h.001zm-.217-.796l-.375-1.323-.372 1.323h.746zm3.32-2.278h1.558c.307 0 .556.045.744.136.19.09.346.22.47.39.123.168.212.366.268.59.055.223.082.461.082.713 0 .393-.042.698-.123.916-.083.217-.197.399-.345.545a1.088 1.088 0 01-.472.293c-.23.067-.438.1-.625.1H36.98v-3.682l.002-.002zm1.05.833v2.012h.257c.22 0 .374-.027.468-.079a.522.522 0 00.217-.276c.052-.132.08-.345.08-.64 0-.389-.06-.657-.176-.8-.118-.144-.312-.216-.584-.216h-.261l-.002-.001zm2.574-.834h2.811v.787h-1.76v.585h1.633v.751h-1.633v.726h1.811v.834h-2.862v-3.682zm7.174 2.175l.919.302c-.061.28-.159.513-.291.7-.133.187-.297.33-.495.425-.197.095-.448.143-.751.143-.368 0-.67-.058-.904-.175-.233-.115-.436-.32-.606-.613-.17-.294-.255-.669-.255-1.126 0-.609.15-1.077.449-1.404.299-.326.721-.49 1.268-.49.428 0 .765.094 1.008.28.245.189.427.476.546.864l-.925.223a.92.92 0 00-.102-.246.577.577 0 00-.5-.271.602.602 0 00-.546.311c-.096.154-.143.396-.143.725 0 .407.057.688.172.84a.565.565 0 00.481.226c.207 0 .352-.062.456-.183.103-.122.177-.3.223-.533l-.004.002zm1.396 1.508v-3.682h1.748c.324 0 .574.03.745.09a.8.8 0 01.414.335c.105.163.158.362.158.597 0 .204-.04.381-.12.528a.993.993 0 01-.331.361c-.09.06-.213.107-.368.146.124.045.216.09.273.136.038.03.095.096.167.193.074.1.123.175.148.23l.508 1.067h-1.186l-.56-1.125c-.072-.146-.134-.24-.19-.284a.418.418 0 00-.258-.085h-.093v1.494h-1.053l-.002-.001zm1.053-2.19h.442c.048 0 .14-.018.278-.051a.271.271 0 00.17-.116.356.356 0 00.066-.214c0-.119-.035-.21-.104-.273-.07-.064-.2-.096-.392-.096h-.461v.75h.001zm2.571-1.492h2.811v.786h-1.76v.585h1.633v.751h-1.633v.726h1.811v.834H52.8v-3.682zm1.344-.975h.81l-.747.751h-.452l.389-.751zm2.05.974h1.56c.306 0 .555.046.743.137.19.09.346.22.47.39.123.168.212.366.268.59.055.223.082.461.082.713 0 .393-.041.698-.123.916-.083.217-.197.399-.344.545a1.088 1.088 0 01-.473.293c-.23.067-.438.1-.625.1h-1.558V56.003zm1.05.834v2.012h.258c.22 0 .375-.027.469-.079a.522.522 0 00.216-.276c.052-.132.08-.345.08-.64 0-.389-.06-.657-.176-.8-.118-.144-.312-.216-.584-.216h-.261l-.001-.001zm2.62-.834h1.05v3.683h-1.05v-3.682zm1.517 0h3.19v.91H63.5v2.773h-1.05v-2.773H61.38v-.91h.001zm3.322 1.844c0-.6.154-1.068.463-1.403.309-.336.739-.503 1.29-.503.552 0 1 .164 1.306.493.305.33.46.79.46 1.382 0 .43-.068.784-.201 1.06-.133.274-.326.489-.579.642-.253.153-.566.23-.943.23-.378 0-.7-.067-.95-.2a1.485 1.485 0 01-.611-.628c-.157-.286-.234-.644-.234-1.075v.002zm1.05.005c0 .372.064.64.19.801.128.163.3.244.52.244.22 0 .4-.08.524-.239.122-.16.184-.445.184-.856 0-.348-.064-.6-.193-.76a.64.64 0 00-.525-.24.603.603 0 00-.508.243c-.13.163-.193.431-.193.806l.001.001zm2.468-40.947v35.807H43.972c26.67-1.114 21.327-19.709 8.965-23.418.26.588.286 1.51.017 2.21-3.639-3.83-10.045-7.246-20.082-8.571 4.617 6.315-4.443 10.669-9.025 12.012-9.448 2.734-9.06 13.062-1.538 15.834 2.775 1.067 6.008 1.436 11.376 1.933H11.667V16.904c0-3.81 2.904-6.904 6.483-6.904h43.588c3.58 0 6.483 3.094 6.483 6.904zM54.303 40.81c-1.08-3.111-5.412-7.548-15.344-11.543 1.764 5.302-.493 7.88-6.492 9.362-9.008 1.592-9.06 9.306-4.65 11.7 1.962 1.178 3.05 1.776 6.206 2.384h.147c-4.807-1.574-4.21-7.658 1.418-9.232 4.608-.966 6.052-2.623 5.36-5.652 11.956 4.575 9.423 12.97.761 14.886h.338c11.1-1.068 14.472-6.306 12.258-11.903l-.002-.002zM11.667 62.066V70h56.666v-7.935H11.667zm7.373 6.306c-2.109 0-3.293-.865-2.896-2.375.38-1.39 2.058-2.301 4.158-2.301 2.404 0 3.233 1.15 2.913 2.31-.406 1.519-2.178 2.367-4.175 2.367v-.001zm9.31-.157h-5.074l1.16-4.372h2.134l-.916 3.497h2.93l-.233.875zm.563 0l1.158-4.372h2.135l-1.15 4.372h-2.143zm8.731 0l.89-2.808-2.066 2.808h-1.426l-.475-2.808-.605 2.808h-1.963l1.167-4.372h2.636l.398 2.716 1.945-2.716h2.627l-1.166 4.372h-1.962zm6.45-1.381h-1.081l-.355 1.38h-2.135l1.142-4.371h3.156c1.875 0 2.627.57 2.385 1.464-.242.93-1.228 1.528-3.113 1.528v-.001zm3.034 1.38l1.15-4.371h2.187l-1.193 4.372h-2.144zm6.45.12c-2.31 0-3.459-.902-3.061-2.329.397-1.417 2.178-2.31 4.132-2.31 2.135 0 3.138.663 2.999 1.786h-2.161c.052-.452-.329-.71-1.046-.71-.804 0-1.409.433-1.651 1.29-.173.616-.121 1.196 1.047 1.196.735 0 1.184-.322 1.382-.745h2.197c-.51 1.132-1.997 1.822-3.839 1.822zm8.281-.129l-.112-.57h-2.196l-.407.57h-2.161l3.596-4.363h2.247l1.228 4.363h-2.196.001zm-40.847-2.2c-.2.737-.726 1.28-1.677 1.28-1.055 0-1.133-.71-.977-1.28.148-.562.631-1.224 1.626-1.224.977-.018 1.184.626 1.028 1.224zm24.154-.69c-.095.368-.484.507-.985.507h-.89l.25-.966h.605c.458 0 1.141.055 1.02.46zm16.443 1.41h-1.392l1.106-1.557.286 1.556z" fill="url(&quot;#olimpica_inline_svg__paint0_linear_2776_29857&quot;)"></path><defs><linearGradient id="olimpica_inline_svg__paint0_linear_2776_29857" x1="11.667" y1="40" x2="68.333" y2="40" gradientUnits="userSpaceOnUse"><stop offset="0.08" stop-color="#D9D9D9"></stop><stop offset="1" stop-color="#807F80"></stop></linearGradient><linearGradient id="olimpica_inline_svg__paint0_linear_2776_29857" x1="11.667" y1="40" x2="68.333" y2="40" gradientUnits="userSpaceOnUse"><stop offset="0.08" stop-color="#D9D9D9"></stop><stop offset="1" stop-color="#807F80"></stop></linearGradient></defs></svg>